<?xml version="1.0" encoding="UTF-8"?><svg xmlns="http://www.w3.org/2000/svg" viewBox="0 0 439.99 102.13"><defs><style>.d{fill:#fff;}.e{fill:#080b0e;}</style></defs><g id="a"/><g id="b"><g id="c"><g><g><path class="e" d="M96.99,60.2c.34,12.08-4.9,21.11-15.19,26.91-14.29,8.04-29.61,12.87-46.2,12.34-9.35-.3-16.82-4.79-21.72-12.6C4.49,71.87-.56,55.46,.05,37.7c.32-9.33,5.14-16.66,13.01-21.48C27.89,7.15,44.04,2.11,61.55,2.7c9.49,.32,16.81,5.23,21.79,13.18,8.49,13.53,12.45,28.53,13.65,44.33Z"/><g><path class="d" d="M55.19,69.33c-3.74,1.37-7.75,1.6-11.28,.65-8.79-2.36-15.18-10.45-15.18-19.22,0-6.99,3.15-11.57,5.78-14.18,3.63-3.59,8.68-5.72,13.55-5.72,.06,0,.12,0,.18,0,9.27,.1,15.15,7.11,15.21,7.17,.81,.99,2.26,1.14,3.25,.33,.99-.8,1.14-2.26,.34-3.25-.29-.36-7.25-8.75-18.74-8.88-6.21-.03-12.43,2.5-17.03,7.06-4.61,4.56-7.15,10.76-7.15,17.46,0,10.83,7.82,20.78,18.59,23.68,1.82,.49,3.73,.73,5.68,.73,2.8,0,5.66-.5,8.39-1.5,7.1-2.6,14.03-9.42,13.78-17.31-1.56,1.15-3.27,2.2-5.06,3.18-1.38,4.33-5.75,8.13-10.3,9.79Z"/><path class="d" d="M72.62,45.3s-2.03,2.17-4.99,4.31c-3.08-3-8-4.43-11.55-4.43-2.91,0-5.14,.76-6.62,2.27-1.16,1.18-1.77,2.73-1.74,4.48,.05,3.14,2.3,6.53,8.46,6.67,3.43,.08,6.8-1.03,9.74-2.53,2.05-1.04,3.52-2.08,4.19-2.55,3.44-2.43,5.72-4.86,5.9-5.07,.87-.94,.81-2.4-.13-3.26-.93-.86-2.39-.81-3.26,.13Zm-16.34,8.67c-1.78-.04-3.92-.44-3.95-2.13-.01-.74,.31-1.06,.41-1.17,.33-.33,1.2-.89,3.33-.89,2.26,0,5.28,.86,7.37,2.36-2.24,1.1-4.67,1.88-7.16,1.82Z"/></g></g><g><path class="e" d="M439.99,57.37V26.58c0-1.47-1.19-2.67-2.67-2.67s-2.67,1.19-2.67,2.67v30.85c.02,.66,.17,16.21-17.25,16.71-17.16-.49-17.43-15.06-17.4-16.77V26.58c0-1.47-1.19-2.67-2.67-2.67s-2.67,1.19-2.67,2.67v30.72c0,.22-.23,21.51,22.73,22.16,22.81-.65,22.58-21.94,22.58-22.1Z"/><path class="e" d="M370.57,40.74c-.51-16.92-15.58-16.85-20.54-16.82-4.73,.02-21.6,0-21.6,0h0c-.71,0-1.38,.28-1.88,.78-.5,.5-.78,1.18-.78,1.89v49.61c0,1.47,1.19,2.67,2.67,2.67s2.67-1.19,2.67-2.67V29.25c4.96,0,15.4,.01,18.97,0,.08,0,.17,0,.25,0,10.36,0,14.69,3.39,14.94,11.65,.09,2.9-.91,5.45-2.98,7.58-1.94,2-4.8,3.59-8.05,4.58-1.23-1.66-2.05-2.78-2.19-2.97-.98-1.27-3.66-4.24-7.42-4.57-.07,0-.15,0-.22,0h-3.7c-3.87-.01-7.01,3.13-7.01,7s3.14,7.01,7.01,7.01h5.92c.65,0,1.35-.04,2.05-.09l-3.85-5.24h-4.12c-.93,0-1.68-.75-1.68-1.68s.75-1.68,1.67-1.68h3.56c1.1,.15,2.49,1.12,3.57,2.52,.06,.08,.26,.34,.58,.77l3.61,4.92h0c3.81,5.18,9.46,12.88,13.74,18.73,.52,.71,1.33,1.09,2.15,1.09,.55,0,1.1-.17,1.57-.52,1.19-.87,1.44-2.54,.57-3.73-1.11-1.51-7.63-10.4-12.51-17.06,3.15-1.16,6.17-2.91,8.56-5.37,3.06-3.16,4.61-7.12,4.48-11.45Z"/><path class="e" d="M298.89,26.58c0-1.47-1.19-2.67-2.67-2.67s-2.67,1.19-2.67,2.67v30.85c.02,.66,.17,16.21-17.25,16.71-17.16-.49-17.43-15.06-17.4-16.77V26.58c0-1.47-1.19-2.67-2.67-2.67s-2.67,1.19-2.67,2.67v30.72c0,.22-.23,21.51,22.73,22.16,22.81-.65,22.58-21.94,22.58-22.1V26.58Z"/><path class="e" d="M209.65,72.45c-4.32,1.58-8.95,1.84-13.03,.75-10.16-2.73-17.53-12.07-17.53-22.2,0-8.08,3.63-13.37,6.68-16.38,4.19-4.15,10.03-6.61,15.65-6.61,.07,0,.14,0,.21,0,10.71,.12,17.51,8.21,17.57,8.29,.93,1.14,2.61,1.31,3.75,.39s1.32-2.61,.39-3.75c-.34-.41-8.37-10.11-21.64-10.26-7.17-.04-14.35,2.89-19.67,8.15-5.33,5.27-8.26,12.43-8.26,20.17,0,12.51,9.03,24.01,21.48,27.35,2.1,.56,4.31,.85,6.56,.85,3.23,0,6.54-.58,9.69-1.74,8.2-3,16.2-10.88,15.91-20-1.81,1.32-3.78,2.54-5.85,3.68-1.6,5.01-6.64,9.39-11.89,11.31Z"/><path class="e" d="M229.79,44.68c-.05,.05-2.34,2.51-5.77,4.97-3.56-3.47-9.24-5.12-13.34-5.12-3.36,0-5.93,.88-7.64,2.62-1.35,1.36-2.04,3.15-2.01,5.17,.06,3.62,2.66,7.55,9.77,7.7,3.97,.1,7.85-1.19,11.25-2.92,2.37-1.2,4.07-2.4,4.84-2.95,3.98-2.81,6.6-5.62,6.82-5.85,1-1.08,.93-2.77-.15-3.77-1.08-1-2.76-.93-3.77,.15Zm-18.87,10.01c-2.06-.05-4.53-.51-4.56-2.46-.01-.85,.36-1.23,.48-1.35,.38-.38,1.38-1.03,3.85-1.03,2.61,0,6.1,1,8.51,2.73-2.59,1.27-5.39,2.17-8.28,2.11Z"/></g><path class="e" d="M136.69,102.13c-.55,0-1-.45-1-1V1c0-.55,.45-1,1-1s1,.45,1,1V101.13c0,.55-.45,1-1,1Z"/></g></g></g></svg>